<svg xmlns="http://www.w3.org/2000/svg" xmlns:xlink="http://www.w3.org/1999/xlink" width="40" zoomAndPan="magnify" viewBox="0 0 30 30.000001" height="40" preserveAspectRatio="xMidYMid meet" version="1.0"><defs><clipPath id="e6ca536abf"><path d="M 1.675781 0 L 28.53125 0 L 28.53125 29.03125 L 1.675781 29.03125 Z M 1.675781 0 " clip-rule="nonzero"/></clipPath></defs><g clip-path="url(#e6ca536abf)"><path fill="#0172af" d="M 6.472656 17.417969 L 10.308594 17.417969 L 10.308594 24.183594 C 10.308594 26.847656 12.460938 29.019531 15.101562 29.019531 C 15.53125 29.019531 15.90625 28.730469 16.023438 28.316406 L 17.875 21.789062 L 22.214844 17.417969 L 27.570312 17.417969 C 28.101562 17.417969 28.53125 16.984375 28.53125 16.449219 L 28.53125 0.980469 C 28.53125 0.445312 28.101562 0.015625 27.570312 0.015625 L 6.179688 0.015625 C 4.765625 0.015625 3.570312 1.03125 3.339844 2.4375 L 1.6875 12.425781 C 1.679688 12.476562 1.675781 12.53125 1.675781 12.582031 C 1.675781 15.246094 3.828125 17.417969 6.472656 17.417969 Z M 26.613281 15.484375 L 22.777344 15.484375 L 22.777344 1.949219 L 26.613281 1.949219 Z M 5.230469 2.753906 C 5.308594 2.289062 5.707031 1.949219 6.179688 1.949219 L 20.859375 1.949219 L 20.859375 16.050781 L 16.34375 20.601562 C 16.226562 20.714844 16.144531 20.859375 16.101562 21.019531 L 14.40625 27 C 13.15625 26.683594 12.226562 25.539062 12.226562 24.183594 L 12.226562 16.449219 C 12.226562 15.914062 11.796875 15.484375 11.265625 15.484375 L 6.472656 15.484375 C 4.910156 15.484375 3.632812 14.222656 3.59375 12.65625 Z M 5.230469 2.753906 " fill-opacity="1" fill-rule="nonzero"/></g></svg>