<svg xmlns="http://www.w3.org/2000/svg" xmlns:xlink="http://www.w3.org/1999/xlink" width="40" zoomAndPan="magnify" viewBox="0 0 30 30.000001" height="40" preserveAspectRatio="xMidYMid meet" version="1.0"><defs><clipPath id="7e1c5e1169"><path d="M 1.460938 0 L 28.316406 0 L 28.316406 29.03125 L 1.460938 29.03125 Z M 1.460938 0 " clip-rule="nonzero"/></clipPath></defs><g clip-path="url(#7e1c5e1169)"><path fill="#0172af" d="M 23.519531 11.617188 L 19.683594 11.617188 L 19.683594 4.847656 C 19.683594 2.183594 17.53125 0.015625 14.886719 0.015625 C 14.460938 0.015625 14.082031 0.300781 13.964844 0.714844 L 12.117188 7.242188 L 7.777344 11.617188 L 2.417969 11.617188 C 1.890625 11.617188 1.460938 12.046875 1.460938 12.582031 L 1.460938 28.050781 C 1.460938 28.585938 1.890625 29.019531 2.417969 29.019531 L 23.8125 29.019531 C 25.226562 29.019531 26.417969 28 26.652344 26.59375 L 28.304688 16.609375 C 28.3125 16.554688 28.316406 16.503906 28.316406 16.449219 C 28.316406 13.785156 26.164062 11.617188 23.519531 11.617188 Z M 3.378906 13.550781 L 7.214844 13.550781 L 7.214844 27.085938 L 3.378906 27.085938 Z M 24.757812 26.277344 C 24.679688 26.746094 24.28125 27.085938 23.8125 27.085938 L 9.132812 27.085938 L 9.132812 12.984375 L 13.648438 8.433594 C 13.761719 8.316406 13.847656 8.171875 13.890625 8.011719 L 15.585938 2.035156 C 16.835938 2.351562 17.765625 3.492188 17.765625 4.847656 L 17.765625 12.582031 C 17.765625 13.117188 18.195312 13.550781 18.722656 13.550781 L 23.519531 13.550781 C 25.082031 13.550781 26.355469 14.8125 26.394531 16.375 Z M 24.757812 26.277344 " fill-opacity="1" fill-rule="nonzero"/></g></svg>