<svg xmlns="http://www.w3.org/2000/svg" xmlns:xlink="http://www.w3.org/1999/xlink" width="40" zoomAndPan="magnify" viewBox="0 0 30 30.000001" height="40" preserveAspectRatio="xMidYMid meet" version="1.0"><defs><clipPath id="15069ea74b"><path d="M 0.484375 4.84375 L 29.515625 4.84375 L 29.515625 24.441406 L 0.484375 24.441406 Z M 0.484375 4.84375 " clip-rule="nonzero"/></clipPath></defs><g clip-path="url(#15069ea74b)"><path fill="#f2f3ae" d="M 27.566406 8.765625 L 2.429688 8.765625 C 2.175781 8.765625 1.929688 8.714844 1.691406 8.613281 C 1.453125 8.515625 1.246094 8.375 1.0625 8.191406 C 0.882812 8.007812 0.742188 7.792969 0.644531 7.554688 C 0.546875 7.3125 0.496094 7.0625 0.496094 6.804688 C 0.496094 6.542969 0.546875 6.292969 0.644531 6.054688 C 0.742188 5.8125 0.882812 5.601562 1.0625 5.417969 C 1.246094 5.234375 1.453125 5.09375 1.691406 4.992188 C 1.929688 4.894531 2.175781 4.84375 2.429688 4.84375 L 27.566406 4.84375 C 27.824219 4.84375 28.070312 4.894531 28.308594 4.992188 C 28.546875 5.09375 28.753906 5.234375 28.9375 5.417969 C 29.117188 5.601562 29.257812 5.8125 29.355469 6.054688 C 29.453125 6.292969 29.5 6.542969 29.5 6.804688 C 29.5 7.0625 29.453125 7.3125 29.355469 7.554688 C 29.257812 7.792969 29.117188 8.007812 28.9375 8.191406 C 28.753906 8.375 28.546875 8.515625 28.308594 8.613281 C 28.070312 8.714844 27.824219 8.765625 27.566406 8.765625 Z M 29.5 14.644531 C 29.5 14.382812 29.453125 14.132812 29.355469 13.894531 C 29.257812 13.652344 29.117188 13.441406 28.9375 13.257812 C 28.753906 13.074219 28.546875 12.933594 28.308594 12.832031 C 28.070312 12.734375 27.824219 12.683594 27.566406 12.683594 L 2.429688 12.683594 C 2.175781 12.683594 1.929688 12.734375 1.691406 12.832031 C 1.453125 12.933594 1.246094 13.074219 1.0625 13.257812 C 0.882812 13.441406 0.742188 13.652344 0.644531 13.894531 C 0.546875 14.132812 0.496094 14.382812 0.496094 14.644531 C 0.496094 14.902344 0.546875 15.152344 0.644531 15.394531 C 0.742188 15.632812 0.882812 15.84375 1.0625 16.027344 C 1.246094 16.210938 1.453125 16.355469 1.691406 16.453125 C 1.929688 16.554688 2.175781 16.601562 2.429688 16.601562 L 27.566406 16.601562 C 27.824219 16.601562 28.070312 16.554688 28.308594 16.453125 C 28.546875 16.355469 28.753906 16.210938 28.9375 16.027344 C 29.117188 15.84375 29.257812 15.632812 29.355469 15.394531 C 29.453125 15.152344 29.5 14.902344 29.5 14.644531 Z M 29.5 22.480469 C 29.5 22.222656 29.453125 21.972656 29.355469 21.730469 C 29.257812 21.492188 29.117188 21.28125 28.9375 21.097656 C 28.753906 20.914062 28.546875 20.769531 28.308594 20.671875 C 28.070312 20.570312 27.824219 20.523438 27.566406 20.523438 L 2.429688 20.523438 C 2.175781 20.523438 1.929688 20.570312 1.691406 20.671875 C 1.453125 20.769531 1.246094 20.914062 1.0625 21.097656 C 0.882812 21.28125 0.742188 21.492188 0.644531 21.730469 C 0.546875 21.972656 0.496094 22.222656 0.496094 22.480469 C 0.496094 22.742188 0.546875 22.992188 0.644531 23.230469 C 0.742188 23.472656 0.882812 23.683594 1.0625 23.867188 C 1.246094 24.050781 1.453125 24.191406 1.691406 24.292969 C 1.929688 24.390625 2.175781 24.441406 2.429688 24.441406 L 27.566406 24.441406 C 27.824219 24.441406 28.070312 24.390625 28.308594 24.292969 C 28.546875 24.191406 28.753906 24.050781 28.9375 23.867188 C 29.117188 23.683594 29.257812 23.472656 29.355469 23.230469 C 29.453125 22.992188 29.5 22.742188 29.5 22.480469 Z M 29.5 22.480469 " fill-opacity="1" fill-rule="nonzero"/></g></svg>