<svg xmlns="http://www.w3.org/2000/svg" xmlns:xlink="http://www.w3.org/1999/xlink" width="40" zoomAndPan="magnify" viewBox="0 0 30 30.000001" height="40" preserveAspectRatio="xMidYMid meet" version="1.0"><defs><clipPath id="8c70f78e34"><path d="M 11 24 L 19 24 L 19 28.761719 L 11 28.761719 Z M 11 24 " clip-rule="nonzero"/></clipPath><clipPath id="790f660204"><path d="M 0.484375 0.453125 L 29.515625 0.453125 L 29.515625 28.761719 L 0.484375 28.761719 Z M 0.484375 0.453125 " clip-rule="nonzero"/></clipPath></defs><path fill="#f2f3ae" d="M 15 7.535156 C 10.894531 7.535156 7.578125 10.882812 7.578125 15.007812 C 7.578125 17.976562 9.296875 20.539062 11.796875 21.742188 L 11.796875 24.296875 L 18.210938 24.296875 L 18.210938 21.742188 C 20.703125 20.539062 22.429688 17.976562 22.429688 15.007812 C 22.421875 10.882812 19.097656 7.535156 15 7.535156 Z M 15 7.535156 " fill-opacity="1" fill-rule="nonzero"/><g clip-path="url(#8c70f78e34)"><path fill="#0b5884" d="M 11.789062 24.308594 L 11.789062 26.953125 C 11.789062 27.820312 12.484375 28.519531 13.34375 28.519531 L 16.648438 28.519531 C 17.507812 28.519531 18.203125 27.820312 18.203125 26.953125 L 18.203125 24.308594 Z M 11.789062 24.308594 " fill-opacity="1" fill-rule="nonzero"/></g><g clip-path="url(#790f660204)"><path fill="#3f3f3f" d="M 15 7.289062 C 10.773438 7.289062 7.332031 10.753906 7.332031 15.007812 C 7.332031 17.910156 8.980469 20.597656 11.550781 21.898438 L 11.550781 27.011719 C 11.550781 27.960938 12.320312 28.734375 13.261719 28.734375 L 16.753906 28.734375 C 17.695312 28.734375 18.464844 27.960938 18.464844 27.011719 L 18.464844 21.90625 C 21.027344 20.605469 22.683594 17.917969 22.683594 15.015625 C 22.667969 10.753906 19.226562 7.289062 15 7.289062 Z M 13.394531 16.722656 C 12.265625 16.589844 11.714844 16.242188 11.714844 15.394531 C 11.714844 14.644531 12.117188 14.296875 12.484375 14.296875 C 12.707031 14.296875 12.917969 14.414062 13.082031 14.609375 C 13.289062 14.867188 13.394531 15.246094 13.394531 15.707031 Z M 15 17.28125 C 15.386719 17.28125 15.761719 17.273438 16.105469 17.257812 L 16.105469 24.058594 L 13.886719 24.058594 L 13.886719 17.257812 C 14.238281 17.273438 14.613281 17.28125 15 17.28125 Z M 17.957031 24.554688 L 17.957031 25.363281 L 12.035156 25.363281 L 12.035156 24.554688 Z M 12.035156 25.855469 L 17.957031 25.855469 L 17.957031 26.664062 L 12.035156 26.664062 Z M 16.746094 28.230469 L 13.253906 28.230469 C 12.632812 28.230469 12.125 27.761719 12.042969 27.160156 L 17.949219 27.160156 C 17.875 27.761719 17.367188 28.230469 16.746094 28.230469 Z M 18.097656 21.519531 C 18.015625 21.5625 17.957031 21.652344 17.957031 21.742188 L 17.957031 24.050781 L 16.597656 24.050781 L 16.597656 17.214844 C 17.875 17.078125 18.769531 16.65625 18.769531 15.386719 C 18.769531 14.347656 18.128906 13.792969 17.507812 13.792969 C 17.136719 13.792969 16.777344 13.976562 16.523438 14.296875 C 16.253906 14.644531 16.105469 15.128906 16.105469 15.699219 L 16.105469 16.753906 C 15.777344 16.769531 15.402344 16.78125 15 16.78125 C 14.597656 16.78125 14.222656 16.769531 13.894531 16.753906 L 13.894531 15.699219 C 13.894531 15.128906 13.746094 14.644531 13.476562 14.296875 C 13.222656 13.976562 12.863281 13.792969 12.492188 13.792969 C 11.863281 13.792969 11.230469 14.339844 11.230469 15.386719 C 11.230469 16.65625 12.125 17.078125 13.402344 17.214844 L 13.402344 24.058594 L 12.035156 24.058594 L 12.035156 21.75 C 12.035156 21.652344 11.976562 21.570312 11.894531 21.527344 C 9.421875 20.332031 7.816406 17.777344 7.816406 15.015625 C 7.816406 11.03125 11.035156 7.792969 14.992188 7.792969 C 18.949219 7.792969 22.167969 11.03125 22.167969 15.015625 C 22.175781 17.769531 20.578125 20.324219 18.097656 21.519531 Z M 16.597656 16.722656 L 16.597656 15.707031 C 16.597656 15.246094 16.703125 14.867188 16.910156 14.609375 C 17.074219 14.40625 17.285156 14.296875 17.507812 14.296875 C 17.875 14.296875 18.277344 14.644531 18.277344 15.394531 C 18.277344 16.242188 17.734375 16.589844 16.597656 16.722656 Z M 15.246094 0.726562 L 15.246094 5.039062 C 15.246094 5.179688 15.140625 5.285156 15 5.285156 C 14.859375 5.285156 14.753906 5.179688 14.753906 5.039062 L 14.753906 0.726562 C 14.753906 0.585938 14.859375 0.480469 15 0.480469 C 15.140625 0.480469 15.246094 0.585938 15.246094 0.726562 Z M 5.078125 15.105469 L 0.730469 15.105469 C 0.589844 15.105469 0.484375 15 0.484375 14.859375 C 0.484375 14.71875 0.589844 14.609375 0.730469 14.609375 L 5.078125 14.609375 C 5.21875 14.609375 5.324219 14.71875 5.324219 14.859375 C 5.324219 15 5.21875 15.105469 5.078125 15.105469 Z M 29.515625 14.859375 C 29.515625 15 29.410156 15.105469 29.269531 15.105469 L 24.921875 15.105469 C 24.78125 15.105469 24.675781 15 24.675781 14.859375 C 24.675781 14.71875 24.78125 14.609375 24.921875 14.609375 L 29.269531 14.609375 C 29.402344 14.609375 29.515625 14.71875 29.515625 14.859375 Z M 8.160156 7.734375 C 8.257812 7.832031 8.257812 7.992188 8.160156 8.082031 C 8.109375 8.128906 8.046875 8.15625 7.988281 8.15625 C 7.921875 8.15625 7.863281 8.128906 7.816406 8.082031 L 4.734375 5.03125 C 4.636719 4.929688 4.636719 4.773438 4.734375 4.683594 C 4.832031 4.585938 4.988281 4.585938 5.078125 4.683594 Z M 25.265625 24.679688 C 25.363281 24.777344 25.363281 24.933594 25.265625 25.023438 C 25.214844 25.074219 25.148438 25.097656 25.09375 25.097656 C 25.027344 25.097656 24.96875 25.074219 24.921875 25.023438 L 21.839844 21.972656 C 21.742188 21.875 21.742188 21.71875 21.839844 21.628906 C 21.9375 21.527344 22.09375 21.527344 22.183594 21.628906 Z M 8.160156 21.628906 C 8.257812 21.726562 8.25 21.882812 8.160156 21.972656 L 5.078125 25.023438 C 5.03125 25.074219 4.972656 25.097656 4.90625 25.097656 C 4.84375 25.097656 4.777344 25.074219 4.734375 25.023438 C 4.636719 24.925781 4.644531 24.769531 4.734375 24.679688 L 7.816406 21.628906 C 7.914062 21.527344 8.070312 21.527344 8.160156 21.628906 Z M 21.832031 8.089844 C 21.734375 7.992188 21.742188 7.832031 21.832031 7.742188 L 24.914062 4.691406 C 25.011719 4.59375 25.167969 4.601562 25.257812 4.691406 C 25.355469 4.792969 25.347656 4.949219 25.257812 5.039062 L 22.175781 8.089844 C 22.128906 8.140625 22.070312 8.164062 22.003906 8.164062 C 21.945312 8.164062 21.882812 8.140625 21.832031 8.089844 Z M 11.421875 5.671875 C 11.46875 5.796875 11.410156 5.945312 11.289062 5.996094 C 11.257812 6.011719 11.222656 6.011719 11.191406 6.011719 C 11.09375 6.011719 11.003906 5.953125 10.960938 5.863281 L 10.183594 4.007812 C 10.132812 3.882812 10.191406 3.734375 10.3125 3.6875 C 10.4375 3.636719 10.585938 3.695312 10.632812 3.820312 Z M 5.914062 18.847656 L 4.039062 19.617188 C 4.007812 19.632812 3.972656 19.632812 3.949219 19.632812 C 3.851562 19.632812 3.761719 19.574219 3.71875 19.476562 C 3.671875 19.351562 3.726562 19.203125 3.851562 19.152344 L 5.726562 18.386719 C 5.847656 18.335938 5.996094 18.394531 6.046875 18.519531 C 6.09375 18.660156 6.039062 18.800781 5.914062 18.847656 Z M 24.085938 10.867188 L 25.960938 10.101562 C 26.082031 10.050781 26.230469 10.109375 26.28125 10.234375 C 26.328125 10.355469 26.273438 10.503906 26.148438 10.554688 L 24.273438 11.320312 C 24.242188 11.335938 24.207031 11.335938 24.183594 11.335938 C 24.085938 11.335938 23.996094 11.28125 23.953125 11.179688 C 23.894531 11.058594 23.960938 10.917969 24.085938 10.867188 Z M 19.800781 4.007812 L 19.023438 5.863281 C 18.980469 5.953125 18.890625 6.011719 18.792969 6.011719 C 18.761719 6.011719 18.726562 6.003906 18.695312 5.996094 C 18.570312 5.945312 18.515625 5.796875 18.5625 5.671875 L 19.339844 3.820312 C 19.390625 3.695312 19.539062 3.636719 19.660156 3.6875 C 19.800781 3.734375 19.859375 3.875 19.800781 4.007812 Z M 3.71875 10.234375 C 3.769531 10.109375 3.917969 10.042969 4.039062 10.101562 L 5.914062 10.867188 C 6.039062 10.917969 6.105469 11.066406 6.046875 11.1875 C 6.003906 11.289062 5.914062 11.347656 5.816406 11.347656 C 5.785156 11.347656 5.75 11.335938 5.726562 11.328125 L 3.851562 10.5625 C 3.726562 10.496094 3.664062 10.355469 3.71875 10.234375 Z M 26.28125 19.484375 C 26.238281 19.582031 26.148438 19.640625 26.050781 19.640625 C 26.019531 19.640625 25.984375 19.632812 25.960938 19.625 L 24.085938 18.855469 C 23.960938 18.808594 23.894531 18.660156 23.953125 18.535156 C 24.003906 18.410156 24.152344 18.347656 24.273438 18.402344 L 26.148438 19.171875 C 26.273438 19.21875 26.328125 19.359375 26.28125 19.484375 Z M 26.28125 19.484375 " fill-opacity="1" fill-rule="nonzero"/></g></svg>