<svg xmlns="http://www.w3.org/2000/svg" xmlns:xlink="http://www.w3.org/1999/xlink" width="40" zoomAndPan="magnify" viewBox="0 0 30 30.000001" height="40" preserveAspectRatio="xMidYMid meet" version="1.0"><defs><clipPath id="7d6405cc66"><path d="M 0.484375 1.054688 L 29.515625 1.054688 L 29.515625 27.910156 L 0.484375 27.910156 Z M 0.484375 1.054688 " clip-rule="nonzero"/></clipPath></defs><path fill="#f2f3ae" d="M 24.363281 12.921875 C 23.640625 12.921875 23.050781 12.335938 23.046875 11.613281 L 20.566406 11.613281 C 20.476562 11.613281 20.398438 11.597656 20.324219 11.566406 L 14.566406 15.882812 C 14.503906 15.929688 14.433594 15.953125 14.363281 15.953125 C 14.289062 15.953125 14.214844 15.929688 14.15625 15.882812 L 5.125 8.953125 C 4.976562 8.839844 4.949219 8.628906 5.0625 8.480469 C 5.175781 8.332031 5.390625 8.304688 5.539062 8.417969 L 14.363281 15.1875 L 19.929688 11.015625 C 19.917969 10.847656 19.976562 10.679688 20.097656 10.550781 C 20.148438 10.496094 20.195312 10.441406 20.238281 10.390625 C 20.550781 10.011719 20.582031 8.875 20.570312 7.296875 L 5.839844 7.296875 C 4.765625 7.296875 3.894531 8.167969 3.894531 9.238281 L 3.894531 17.59375 C 3.894531 17.882812 3.957031 18.15625 4.070312 18.398438 L 3.894531 19.351562 C 3.894531 19.351562 3.890625 19.347656 3.890625 19.34375 L 2.910156 24.992188 L 7.625 19.523438 L 7.636719 19.535156 L 22.886719 19.535156 C 23.957031 19.535156 24.828125 18.664062 24.828125 17.59375 L 24.828125 12.839844 C 24.683594 12.894531 24.527344 12.921875 24.363281 12.921875 Z M 28.273438 10.9375 L 25.339844 10.9375 C 25.152344 10.9375 25 11.085938 25 11.273438 L 25 11.609375 C 25 11.957031 24.714844 12.246094 24.363281 12.246094 C 24.011719 12.246094 23.726562 11.957031 23.726562 11.609375 L 23.726562 11.273438 C 23.726562 11.085938 23.574219 10.9375 23.386719 10.9375 L 20.824219 10.9375 C 20.8125 10.894531 20.792969 10.855469 20.765625 10.820312 C 21.253906 10.21875 21.265625 8.96875 21.246094 6.972656 C 21.242188 6.695312 21.238281 6.378906 21.238281 6.085938 C 21.238281 5.042969 22.542969 4.074219 23.75 3.773438 L 24.039062 3.703125 C 24.207031 3.660156 24.316406 3.5 24.292969 3.328125 L 24.25 3.011719 C 24.25 3.007812 24.25 3.007812 24.25 3.007812 C 24.25 3.003906 24.25 2.996094 24.25 2.992188 C 24.253906 2.882812 24.34375 2.792969 24.457031 2.789062 C 24.464844 2.789062 24.46875 2.789062 24.472656 2.789062 L 24.480469 2.789062 C 24.59375 2.792969 24.6875 2.882812 24.691406 2.992188 C 24.691406 2.996094 24.691406 3 24.691406 3.007812 L 24.691406 3.011719 L 24.648438 3.328125 C 24.625 3.5 24.734375 3.660156 24.902344 3.703125 L 25.191406 3.773438 C 26.398438 4.074219 27.699219 5.042969 27.699219 6.085938 C 27.699219 6.371094 27.695312 6.671875 27.695312 6.964844 L 27.695312 6.972656 C 27.671875 8.96875 27.6875 10.222656 28.175781 10.820312 C 28.207031 10.859375 28.238281 10.898438 28.273438 10.9375 " fill-opacity="1" fill-rule="nonzero"/><g clip-path="url(#7d6405cc66)"><path fill="#000000" d="M 25.546875 10.449219 C 25.347656 10.449219 25.1875 10.613281 25.1875 10.8125 L 25.1875 11.164062 C 25.1875 11.539062 24.882812 11.84375 24.507812 11.84375 C 24.132812 11.84375 23.828125 11.539062 23.828125 11.164062 L 23.828125 10.8125 C 23.828125 10.613281 23.667969 10.449219 23.46875 10.449219 L 20.738281 10.449219 C 20.726562 10.40625 20.707031 10.363281 20.679688 10.324219 C 21.195312 9.6875 21.210938 8.355469 21.1875 6.230469 C 21.1875 5.9375 21.183594 5.601562 21.183594 5.285156 C 21.183594 4.179688 22.570312 3.148438 23.851562 2.828125 L 24.160156 2.75 C 24.339844 2.707031 24.457031 2.535156 24.433594 2.351562 L 24.386719 2.011719 C 24.386719 2.003906 24.386719 2 24.382812 1.996094 C 24.390625 1.875 24.488281 1.78125 24.609375 1.777344 C 24.613281 1.777344 24.617188 1.777344 24.625 1.777344 L 24.632812 1.777344 C 24.753906 1.78125 24.851562 1.875 24.855469 1.996094 C 24.855469 2 24.855469 2.003906 24.855469 2.007812 L 24.855469 2.011719 L 24.808594 2.351562 C 24.785156 2.535156 24.902344 2.707031 25.078125 2.75 L 25.386719 2.828125 C 26.671875 3.148438 28.058594 4.179688 28.058594 5.285156 C 28.058594 5.589844 28.054688 5.910156 28.050781 6.222656 L 28.050781 6.234375 C 28.03125 8.355469 28.042969 9.691406 28.5625 10.328125 C 28.597656 10.367188 28.632812 10.40625 28.667969 10.449219 Z M 25.003906 17.539062 C 25.003906 18.675781 24.074219 19.601562 22.933594 19.601562 L 6.699219 19.601562 L 6.6875 19.59375 L 1.671875 25.410156 L 2.710938 19.402344 C 2.714844 19.402344 2.714844 19.40625 2.71875 19.410156 L 2.90625 18.394531 C 2.785156 18.132812 2.71875 17.84375 2.71875 17.539062 L 2.71875 8.640625 C 2.71875 7.503906 3.648438 6.578125 4.789062 6.578125 L 20.46875 6.578125 C 20.480469 8.253906 20.449219 9.464844 20.117188 9.871094 C 20.070312 9.925781 20.023438 9.980469 19.96875 10.039062 C 19.835938 10.175781 19.773438 10.355469 19.785156 10.535156 L 13.863281 14.976562 L 4.46875 7.769531 C 4.3125 7.648438 4.082031 7.675781 3.960938 7.835938 C 3.839844 7.992188 3.871094 8.21875 4.027344 8.339844 L 13.640625 15.714844 C 13.707031 15.765625 13.78125 15.789062 13.859375 15.789062 C 13.9375 15.789062 14.011719 15.765625 14.078125 15.71875 L 20.207031 11.121094 C 20.285156 11.152344 20.371094 11.171875 20.46875 11.171875 L 23.105469 11.171875 C 23.109375 11.941406 23.738281 12.566406 24.507812 12.566406 C 24.683594 12.566406 24.847656 12.53125 25.003906 12.472656 Z M 29.273438 10.039062 C 29.21875 9.980469 29.167969 9.925781 29.125 9.871094 C 28.773438 9.4375 28.757812 8.09375 28.777344 6.238281 L 28.777344 6.230469 C 28.777344 5.917969 28.78125 5.59375 28.78125 5.285156 C 28.78125 4.914062 28.679688 4.539062 28.480469 4.175781 C 28.304688 3.851562 28.050781 3.542969 27.730469 3.261719 C 27.144531 2.738281 26.359375 2.324219 25.570312 2.128906 L 25.570312 2.109375 C 25.578125 2.066406 25.582031 2.039062 25.582031 2.007812 C 25.582031 1.757812 25.484375 1.519531 25.304688 1.339844 C 25.128906 1.160156 24.894531 1.058594 24.644531 1.054688 C 24.640625 1.054688 24.636719 1.054688 24.632812 1.054688 L 24.621094 1.054688 C 24.613281 1.054688 24.609375 1.054688 24.605469 1.054688 C 24.082031 1.058594 23.660156 1.488281 23.660156 2.007812 C 23.660156 2.039062 23.664062 2.070312 23.667969 2.109375 L 23.671875 2.128906 C 22.882812 2.324219 22.09375 2.738281 21.507812 3.261719 C 21.191406 3.542969 20.9375 3.851562 20.761719 4.175781 C 20.558594 4.539062 20.457031 4.914062 20.457031 5.285156 C 20.457031 5.472656 20.460938 5.664062 20.460938 5.855469 L 4.789062 5.855469 C 3.246094 5.855469 1.996094 7.105469 1.996094 8.640625 L 1.996094 17.539062 C 1.996094 17.84375 2.042969 18.136719 2.136719 18.410156 L 0.492188 27.90625 L 7.027344 20.324219 L 22.933594 20.324219 C 24.472656 20.324219 25.726562 19.074219 25.726562 17.539062 L 25.726562 11.933594 C 25.726562 11.910156 25.722656 11.890625 25.71875 11.867188 C 25.839844 11.664062 25.910156 11.425781 25.910156 11.171875 L 28.773438 11.171875 C 29.105469 11.171875 29.3125 10.957031 29.398438 10.757812 C 29.507812 10.511719 29.457031 10.234375 29.273438 10.039062 " fill-opacity="1" fill-rule="nonzero"/></g></svg>