<svg xmlns="http://www.w3.org/2000/svg" xmlns:xlink="http://www.w3.org/1999/xlink" width="40" zoomAndPan="magnify" viewBox="0 0 30 30.000001" height="40" preserveAspectRatio="xMidYMid meet" version="1.0"><defs><clipPath id="4df3d9b452"><path d="M 0.484375 0 L 29.515625 0 L 29.515625 29.03125 L 0.484375 29.03125 Z M 0.484375 0 " clip-rule="nonzero"/></clipPath></defs><g clip-path="url(#4df3d9b452)"><path fill="#f2f3ae" d="M 15 0 C 14.046875 0 13.101562 0.09375 12.167969 0.277344 C 11.234375 0.464844 10.324219 0.738281 9.445312 1.105469 C 8.5625 1.46875 7.726562 1.917969 6.933594 2.445312 C 6.144531 2.976562 5.410156 3.578125 4.734375 4.25 C 4.0625 4.925781 3.460938 5.660156 2.929688 6.453125 C 2.402344 7.242188 1.953125 8.082031 1.589844 8.960938 C 1.222656 9.839844 0.949219 10.75 0.761719 11.683594 C 0.578125 12.617188 0.484375 13.5625 0.484375 14.515625 C 0.484375 15.46875 0.578125 16.414062 0.761719 17.347656 C 0.949219 18.28125 1.222656 19.191406 1.589844 20.070312 C 1.953125 20.953125 2.402344 21.789062 2.929688 22.582031 C 3.460938 23.375 4.0625 24.105469 4.734375 24.78125 C 5.410156 25.453125 6.144531 26.054688 6.933594 26.585938 C 7.726562 27.117188 8.5625 27.5625 9.445312 27.925781 C 10.324219 28.292969 11.234375 28.566406 12.167969 28.753906 C 13.101562 28.9375 14.046875 29.03125 15 29.03125 C 15.953125 29.03125 16.898438 28.9375 17.832031 28.753906 C 18.765625 28.566406 19.675781 28.292969 20.554688 27.925781 C 21.4375 27.5625 22.273438 27.117188 23.066406 26.585938 C 23.855469 26.054688 24.589844 25.453125 25.265625 24.78125 C 25.9375 24.105469 26.539062 23.375 27.070312 22.582031 C 27.597656 21.789062 28.046875 20.953125 28.410156 20.070312 C 28.777344 19.191406 29.050781 18.28125 29.238281 17.347656 C 29.421875 16.414062 29.515625 15.46875 29.515625 14.515625 C 29.515625 13.5625 29.421875 12.617188 29.238281 11.683594 C 29.050781 10.75 28.773438 9.839844 28.410156 8.960938 C 28.046875 8.082031 27.597656 7.242188 27.070312 6.449219 C 26.539062 5.660156 25.9375 4.925781 25.261719 4.25 C 24.589844 3.578125 23.855469 2.976562 23.0625 2.445312 C 22.269531 1.917969 21.433594 1.46875 20.554688 1.105469 C 19.671875 0.738281 18.765625 0.464844 17.832031 0.277344 C 16.898438 0.09375 15.953125 0 15 0 Z M 15 5.445312 C 15.34375 5.445312 15.683594 5.484375 16.019531 5.5625 C 16.355469 5.640625 16.679688 5.757812 16.988281 5.910156 C 17.296875 6.066406 17.582031 6.25 17.847656 6.472656 C 18.113281 6.691406 18.351562 6.941406 18.558594 7.214844 C 18.765625 7.492188 18.9375 7.789062 19.078125 8.101562 C 19.214844 8.417969 19.316406 8.746094 19.378906 9.085938 C 19.441406 9.425781 19.464844 9.765625 19.449219 10.113281 C 19.433594 10.457031 19.375 10.792969 19.28125 11.125 C 19.1875 11.457031 19.054688 11.773438 18.886719 12.074219 C 18.714844 12.375 18.515625 12.652344 18.28125 12.90625 C 18.050781 13.160156 17.789062 13.386719 17.503906 13.578125 C 17.21875 13.773438 16.914062 13.929688 16.59375 14.054688 C 16.269531 14.175781 15.9375 14.261719 15.597656 14.308594 C 15.253906 14.355469 14.914062 14.359375 14.570312 14.328125 C 14.226562 14.292969 13.890625 14.222656 13.566406 14.109375 C 13.238281 14 12.929688 13.851562 12.636719 13.667969 C 8.898438 11.300781 10.519531 5.488281 15 5.445312 Z M 20.222656 23.589844 L 9.777344 23.589844 C 9.34375 23.585938 8.921875 23.503906 8.519531 23.335938 C 8.117188 23.167969 7.761719 22.929688 7.453125 22.621094 C 7.144531 22.3125 6.90625 21.957031 6.742188 21.554688 C 6.574219 21.152344 6.488281 20.730469 6.488281 20.296875 C 6.488281 17.503906 8.542969 15.097656 11.492188 14.011719 C 11.984375 14.425781 12.53125 14.746094 13.132812 14.964844 C 13.734375 15.1875 14.359375 15.296875 15 15.296875 C 15.640625 15.296875 16.265625 15.1875 16.867188 14.964844 C 17.46875 14.746094 18.015625 14.425781 18.507812 14.011719 C 21.457031 15.097656 23.511719 17.503906 23.511719 20.296875 C 23.511719 20.730469 23.425781 21.152344 23.257812 21.554688 C 23.09375 21.957031 22.855469 22.3125 22.546875 22.621094 C 22.238281 22.929688 21.882812 23.167969 21.480469 23.335938 C 21.078125 23.503906 20.65625 23.585938 20.222656 23.589844 Z M 20.222656 23.589844 " fill-opacity="1" fill-rule="nonzero"/></g></svg>