<svg xmlns="http://www.w3.org/2000/svg" xmlns:xlink="http://www.w3.org/1999/xlink" width="40" zoomAndPan="magnify" viewBox="0 0 30 30.000001" height="40" preserveAspectRatio="xMidYMid meet" version="1.0"><defs><clipPath id="c0b59921ca"><path d="M 7.550781 12.277344 L 22.789062 12.277344 L 22.789062 21.933594 L 7.550781 21.933594 Z M 7.550781 12.277344 " clip-rule="nonzero"/></clipPath><clipPath id="6b52e9e502"><path d="M 10 28 L 21 28 L 21 29.03125 L 10 29.03125 Z M 10 28 " clip-rule="nonzero"/></clipPath></defs><path fill="#313130" d="M 11.316406 1.566406 C 12.304688 0.601562 13.667969 0 15.167969 0 C 16.671875 0 18.035156 0.601562 19.023438 1.566406 C 20.011719 2.535156 20.625 3.867188 20.625 5.335938 L 20.625 13.359375 C 20.625 14.828125 20.011719 16.160156 19.023438 17.128906 C 18.035156 18.09375 16.671875 18.695312 15.167969 18.695312 C 13.667969 18.695312 12.304688 18.09375 11.316406 17.128906 C 10.324219 16.160156 9.710938 14.828125 9.710938 13.359375 L 9.710938 5.335938 C 9.710938 3.867188 10.324219 2.535156 11.316406 1.566406 Z M 15.167969 0.90625 C 13.925781 0.90625 12.792969 1.40625 11.96875 2.207031 C 11.148438 3.011719 10.640625 4.117188 10.640625 5.335938 L 10.640625 13.359375 C 10.640625 14.578125 11.148438 15.683594 11.96875 16.488281 C 12.792969 17.289062 13.925781 17.789062 15.167969 17.789062 C 16.414062 17.789062 17.546875 17.289062 18.367188 16.488281 C 19.1875 15.683594 19.699219 14.578125 19.699219 13.359375 L 19.699219 5.335938 C 19.699219 4.117188 19.1875 3.011719 18.367188 2.207031 C 17.546875 1.40625 16.414062 0.90625 15.167969 0.90625 " fill-opacity="1" fill-rule="nonzero"/><path fill="#313130" d="M 14.800781 6.871094 C 15.058594 6.871094 15.265625 6.667969 15.265625 6.417969 C 15.265625 6.167969 15.058594 5.964844 14.800781 5.964844 L 10.175781 5.964844 C 9.917969 5.964844 9.710938 6.167969 9.710938 6.417969 C 9.710938 6.667969 9.917969 6.871094 10.175781 6.871094 L 14.800781 6.871094 " fill-opacity="1" fill-rule="nonzero"/><path fill="#313130" d="M 14.800781 9.398438 C 15.058594 9.398438 15.265625 9.195312 15.265625 8.945312 C 15.265625 8.695312 15.058594 8.492188 14.800781 8.492188 L 10.175781 8.492188 C 9.917969 8.492188 9.710938 8.695312 9.710938 8.945312 C 9.710938 9.195312 9.917969 9.398438 10.175781 9.398438 L 14.800781 9.398438 " fill-opacity="1" fill-rule="nonzero"/><path fill="#313130" d="M 14.800781 11.921875 C 15.058594 11.921875 15.265625 11.71875 15.265625 11.46875 C 15.265625 11.21875 15.058594 11.015625 14.800781 11.015625 L 10.175781 11.015625 C 9.917969 11.015625 9.710938 11.21875 9.710938 11.46875 C 9.710938 11.71875 9.917969 11.921875 10.175781 11.921875 L 14.800781 11.921875 " fill-opacity="1" fill-rule="nonzero"/><path fill="#313130" d="M 14.800781 14.449219 C 15.058594 14.449219 15.265625 14.246094 15.265625 13.996094 C 15.265625 13.746094 15.058594 13.542969 14.800781 13.542969 L 10.21875 13.542969 C 9.960938 13.542969 9.753906 13.746094 9.753906 13.996094 C 9.753906 14.246094 9.960938 14.449219 10.21875 14.449219 L 14.800781 14.449219 " fill-opacity="1" fill-rule="nonzero"/><g clip-path="url(#c0b59921ca)"><path fill="#313130" d="M 8.507812 12.777344 C 8.53125 12.527344 8.347656 12.308594 8.089844 12.285156 C 7.835938 12.261719 7.613281 12.441406 7.585938 12.691406 C 7.585938 12.71875 6.578125 21.828125 15.148438 21.929688 C 15.152344 21.929688 15.15625 21.929688 15.164062 21.929688 C 15.15625 21.929688 15.152344 21.929688 15.148438 21.929688 C 14.902344 21.917969 14.707031 21.722656 14.707031 21.480469 C 14.703125 21.234375 14.910156 21.027344 15.164062 21.027344 L 15.167969 21.480469 L 15.164062 21.929688 L 15.175781 21.929688 C 15.179688 21.929688 15.1875 21.929688 15.191406 21.929688 C 15.183594 21.929688 15.179688 21.929688 15.175781 21.929688 L 15.171875 21.929688 L 15.167969 21.480469 L 15.171875 21.027344 C 15.429688 21.027344 15.632812 21.234375 15.632812 21.480469 C 15.628906 21.722656 15.433594 21.917969 15.191406 21.929688 C 23.757812 21.828125 22.753906 12.71875 22.75 12.691406 C 22.726562 12.441406 22.5 12.261719 22.246094 12.285156 C 21.992188 12.308594 21.804688 12.527344 21.828125 12.777344 C 21.832031 12.800781 22.730469 20.945312 15.167969 21.027344 C 7.609375 20.945312 8.507812 12.800781 8.507812 12.777344 " fill-opacity="1" fill-rule="nonzero"/></g><path fill="#313130" d="M 14.707031 28.238281 C 14.707031 28.488281 14.914062 28.691406 15.167969 28.691406 C 15.425781 28.691406 15.632812 28.488281 15.632812 28.238281 L 15.632812 21.914062 L 15.8125 21.421875 C 15.8125 21.171875 15.425781 21.023438 15.167969 21.023438 C 14.886719 21.003906 14.636719 21.214844 14.652344 21.476562 L 14.707031 21.914062 L 14.707031 28.238281 " fill-opacity="1" fill-rule="nonzero"/><g clip-path="url(#6b52e9e502)"><path fill="#313130" d="M 19.816406 29.03125 C 20.070312 29.03125 20.277344 28.828125 20.277344 28.578125 C 20.277344 28.328125 20.070312 28.125 19.816406 28.125 L 10.523438 28.125 C 10.265625 28.125 10.058594 28.328125 10.058594 28.578125 C 10.058594 28.828125 10.265625 29.03125 10.523438 29.03125 L 19.816406 29.03125 " fill-opacity="1" fill-rule="nonzero"/></g><path fill="#f2f3ae" d="M 15.167969 17.789062 C 16.414062 17.789062 17.546875 17.289062 18.367188 16.488281 C 19.1875 15.683594 19.699219 14.578125 19.699219 13.359375 L 19.699219 5.335938 C 19.699219 4.117188 19.1875 3.011719 18.367188 2.207031 C 17.546875 1.40625 16.414062 0.90625 15.167969 0.90625 C 13.925781 0.90625 12.792969 1.40625 11.96875 2.207031 C 11.148438 3.011719 10.640625 4.117188 10.640625 5.335938 L 10.640625 5.964844 L 14.800781 5.964844 C 15.058594 5.964844 15.265625 6.167969 15.265625 6.417969 C 15.265625 6.667969 15.058594 6.871094 14.800781 6.871094 L 10.640625 6.871094 L 10.640625 8.492188 L 14.800781 8.492188 C 15.058594 8.492188 15.265625 8.695312 15.265625 8.945312 C 15.265625 9.195312 15.058594 9.398438 14.800781 9.398438 L 10.640625 9.398438 L 10.640625 11.015625 L 14.800781 11.015625 C 15.058594 11.015625 15.265625 11.21875 15.265625 11.46875 C 15.265625 11.71875 15.058594 11.921875 14.800781 11.921875 L 10.640625 11.921875 L 10.640625 13.359375 C 10.640625 13.421875 10.640625 13.480469 10.644531 13.542969 L 14.800781 13.542969 C 15.058594 13.542969 15.265625 13.746094 15.265625 13.996094 C 15.265625 14.246094 15.058594 14.449219 14.800781 14.449219 L 10.78125 14.449219 C 10.984375 15.230469 11.402344 15.929688 11.96875 16.488281 C 12.792969 17.289062 13.925781 17.789062 15.167969 17.789062 " fill-opacity="1" fill-rule="evenodd"/></svg>