<svg xmlns="http://www.w3.org/2000/svg" xmlns:xlink="http://www.w3.org/1999/xlink" width="40" zoomAndPan="magnify" viewBox="0 0 30 30.000001" height="40" preserveAspectRatio="xMidYMid meet" version="1.0"><defs><clipPath id="d4732bdff0"><path d="M 0.484375 1.125 L 29.515625 1.125 L 29.515625 21 L 0.484375 21 Z M 0.484375 1.125 " clip-rule="nonzero"/></clipPath><clipPath id="863275caed"><path d="M 14 25 L 20 25 L 20 27.980469 L 14 27.980469 Z M 14 25 " clip-rule="nonzero"/></clipPath><clipPath id="333c480019"><path d="M 16 17 L 18 17 L 18 27.980469 L 16 27.980469 Z M 16 17 " clip-rule="nonzero"/></clipPath></defs><g clip-path="url(#d4732bdff0)"><path fill="#f2f3ae" d="M 24.589844 20.578125 L 6.191406 20.578125 C 3.082031 20.574219 0.53125 18.007812 0.527344 14.890625 C 0.515625 13.027344 1.429688 11.273438 2.96875 10.226562 C 4.296875 9.300781 5.960938 8.988281 7.535156 9.371094 C 7.550781 7.417969 8.269531 5.539062 9.558594 4.078125 C 11.140625 2.203125 13.46875 1.121094 15.914062 1.121094 C 18.46875 1.121094 20.890625 2.300781 22.464844 4.320312 C 23.894531 6.09375 24.515625 8.394531 24.179688 10.648438 C 24.300781 10.640625 24.417969 10.636719 24.539062 10.636719 C 27.261719 10.636719 29.5 12.882812 29.5 15.609375 C 29.5 18.320312 27.292969 20.558594 24.589844 20.585938 Z M 6.199219 10.09375 C 5.222656 10.09375 4.269531 10.390625 3.46875 10.949219 C 2.171875 11.835938 1.394531 13.316406 1.40625 14.890625 C 1.410156 17.523438 3.566406 19.691406 6.191406 19.695312 L 24.589844 19.695312 C 26.8125 19.675781 28.632812 17.832031 28.632812 15.601562 C 28.632812 13.355469 26.792969 11.507812 24.550781 11.507812 C 24.269531 11.507812 23.988281 11.539062 23.710938 11.597656 C 23.679688 11.605469 23.648438 11.605469 23.621094 11.605469 C 23.378906 11.605469 23.179688 11.40625 23.179688 11.164062 C 23.179688 11.132812 23.183594 11.097656 23.191406 11.0625 C 23.703125 8.882812 23.179688 6.582031 21.777344 4.839844 C 20.367188 3.035156 18.203125 1.976562 15.914062 1.976562 C 13.722656 1.976562 11.640625 2.945312 10.226562 4.625 C 8.882812 6.199219 8.210938 8.21875 8.46875 9.917969 C 8.492188 10.070312 8.433594 10.222656 8.316406 10.324219 C 8.191406 10.425781 8.023438 10.453125 7.875 10.394531 C 7.339844 10.195312 6.773438 10.09375 6.199219 10.09375 Z M 6.199219 10.09375 " fill-opacity="1" fill-rule="nonzero"/></g><g clip-path="url(#863275caed)"><path fill="#f2f3ae" d="M 17.023438 27.972656 C 16.90625 27.972656 16.792969 27.925781 16.710938 27.839844 L 14.863281 26.011719 C 14.78125 25.929688 14.734375 25.816406 14.734375 25.699219 C 14.734375 25.582031 14.78125 25.46875 14.863281 25.382812 C 15.03125 25.214844 15.3125 25.214844 15.484375 25.382812 L 17.023438 26.929688 L 18.5625 25.382812 C 18.730469 25.214844 19.011719 25.214844 19.179688 25.382812 C 19.265625 25.46875 19.3125 25.582031 19.3125 25.699219 C 19.3125 25.816406 19.265625 25.929688 19.179688 26.011719 L 17.328125 27.863281 C 17.246094 27.9375 17.136719 27.976562 17.023438 27.972656 Z M 17.023438 27.972656 " fill-opacity="1" fill-rule="nonzero"/></g><g clip-path="url(#333c480019)"><path fill="#f2f3ae" d="M 17.023438 27.972656 C 16.78125 27.972656 16.582031 27.773438 16.582031 27.53125 L 16.582031 17.761719 C 16.582031 17.519531 16.78125 17.324219 17.023438 17.324219 C 17.261719 17.324219 17.460938 17.519531 17.460938 17.761719 L 17.460938 27.53125 C 17.460938 27.773438 17.261719 27.972656 17.023438 27.972656 Z M 17.023438 27.972656 " fill-opacity="1" fill-rule="nonzero"/></g><path fill="#f2f3ae" d="M 14.902344 16.214844 C 14.785156 16.214844 14.675781 16.167969 14.59375 16.085938 L 13.054688 14.542969 L 11.519531 16.085938 C 11.4375 16.183594 11.316406 16.242188 11.1875 16.242188 C 10.945312 16.242188 10.746094 16.042969 10.746094 15.800781 C 10.746094 15.671875 10.804688 15.550781 10.902344 15.464844 L 12.753906 13.609375 C 12.832031 13.527344 12.945312 13.480469 13.058594 13.480469 C 13.175781 13.480469 13.289062 13.527344 13.371094 13.609375 L 15.21875 15.464844 C 15.386719 15.636719 15.386719 15.917969 15.21875 16.085938 C 15.136719 16.171875 15.019531 16.21875 14.902344 16.214844 Z M 14.902344 16.214844 " fill-opacity="1" fill-rule="nonzero"/><path fill="#f2f3ae" d="M 13.054688 24.128906 C 12.8125 24.128906 12.617188 23.929688 12.617188 23.6875 L 12.617188 13.921875 C 12.617188 13.679688 12.8125 13.480469 13.054688 13.480469 C 13.296875 13.480469 13.496094 13.679688 13.496094 13.921875 L 13.496094 23.6875 C 13.496094 23.929688 13.296875 24.128906 13.054688 24.128906 Z M 13.054688 24.128906 " fill-opacity="1" fill-rule="nonzero"/></svg>